<mxfile host="65bd71144e">
    <diagram id="iKPcuCFG87xUjZiUuu50" name="Page-1">
        <mxGraphModel dx="1148" dy="846" grid="1" gridSize="10" guides="1" tooltips="1" connect="1" arrows="1" fold="1" page="1" pageScale="1" pageWidth="850" pageHeight="1100" math="0" shadow="0">
            <root>
                <mxCell id="0"/>
                <mxCell id="1" parent="0"/>
                <mxCell id="79" value="alt" style="strokeColor=inherit;fillColor=inherit;gradientColor=inherit;html=1;shape=mxgraph.sysml.package;labelX=35;fontStyle=1;align=left;verticalAlign=top;spacingLeft=5;spacingTop=-3;fontFamily=Times New Roman;fontSize=12;opacity=40;strokeWidth=2;" parent="1" vertex="1">
                    <mxGeometry x="10" y="240" width="800" height="150" as="geometry"/>
                </mxCell>
                <mxCell id="2" value="User" style="shape=umlActor;verticalLabelPosition=bottom;verticalAlign=top;html=1;outlineConnect=0;fontFamily=Times New Roman;" parent="1" vertex="1">
                    <mxGeometry x="10" y="70" width="30" height="60" as="geometry"/>
                </mxCell>
                <mxCell id="3" value="Flutter App" style="rounded=0;whiteSpace=wrap;html=1;fontFamily=Times New Roman;" parent="1" vertex="1">
                    <mxGeometry x="190" y="70" width="120" height="60" as="geometry"/>
                </mxCell>
                <mxCell id="4" value="Django Server" style="rounded=0;whiteSpace=wrap;html=1;fontFamily=Times New Roman;" parent="1" vertex="1">
                    <mxGeometry x="460" y="70" width="120" height="60" as="geometry"/>
                </mxCell>
                <mxCell id="5" value="Neon DB" style="rounded=0;whiteSpace=wrap;html=1;" parent="1" vertex="1">
                    <mxGeometry x="730" y="70" width="120" height="60" as="geometry"/>
                </mxCell>
                <mxCell id="6" value="" style="endArrow=none;dashed=1;html=1;dashPattern=1 3;strokeWidth=2;fontFamily=Times New Roman;" parent="1" edge="1">
                    <mxGeometry width="50" height="50" relative="1" as="geometry">
                        <mxPoint x="20" y="780" as="sourcePoint"/>
                        <mxPoint x="20" y="140" as="targetPoint"/>
                    </mxGeometry>
                </mxCell>
                <mxCell id="7" value="" style="endArrow=none;dashed=1;html=1;dashPattern=1 3;strokeWidth=2;startArrow=none;fontFamily=Times New Roman;" parent="1" source="25" edge="1">
                    <mxGeometry width="50" height="50" relative="1" as="geometry">
                        <mxPoint x="249.5" y="660" as="sourcePoint"/>
                        <mxPoint x="249.5" y="140" as="targetPoint"/>
                    </mxGeometry>
                </mxCell>
                <mxCell id="8" value="" style="endArrow=none;dashed=1;html=1;dashPattern=1 3;strokeWidth=2;startArrow=none;fontFamily=Times New Roman;" parent="1" source="29" edge="1">
                    <mxGeometry width="50" height="50" relative="1" as="geometry">
                        <mxPoint x="519.5" y="650" as="sourcePoint"/>
                        <mxPoint x="519.5" y="130" as="targetPoint"/>
                    </mxGeometry>
                </mxCell>
                <mxCell id="9" value="" style="endArrow=none;dashed=1;html=1;dashPattern=1 3;strokeWidth=2;startArrow=none;fontFamily=Times New Roman;" parent="1" source="32" edge="1">
                    <mxGeometry width="50" height="50" relative="1" as="geometry">
                        <mxPoint x="789.5" y="650" as="sourcePoint"/>
                        <mxPoint x="789.5" y="130" as="targetPoint"/>
                    </mxGeometry>
                </mxCell>
                <mxCell id="11" value="Login&amp;nbsp;" style="endArrow=classic;html=1;fontFamily=Times New Roman;fontSize=12;" parent="1" edge="1">
                    <mxGeometry width="50" height="50" relative="1" as="geometry">
                        <mxPoint x="20" y="190" as="sourcePoint"/>
                        <mxPoint x="250" y="190" as="targetPoint"/>
                    </mxGeometry>
                </mxCell>
                <mxCell id="13" value="Request Login" style="endArrow=classic;html=1;fontFamily=Times New Roman;fontSize=12;" parent="1" edge="1">
                    <mxGeometry width="50" height="50" relative="1" as="geometry">
                        <mxPoint x="250" y="210" as="sourcePoint"/>
                        <mxPoint x="520" y="210" as="targetPoint"/>
                    </mxGeometry>
                </mxCell>
                <mxCell id="14" value="" style="endArrow=classic;html=1;fontFamily=Times New Roman;" parent="1" edge="1">
                    <mxGeometry width="50" height="50" relative="1" as="geometry">
                        <mxPoint x="520" y="230" as="sourcePoint"/>
                        <mxPoint x="790" y="230" as="targetPoint"/>
                    </mxGeometry>
                </mxCell>
                <mxCell id="16" value="&lt;font style=&quot;font-size: 12px;&quot;&gt;Authorize&lt;/font&gt;" style="edgeLabel;html=1;align=center;verticalAlign=middle;resizable=0;points=[];fontFamily=Times New Roman;fontSize=12;" parent="14" vertex="1" connectable="0">
                    <mxGeometry x="-0.2483" y="-3" relative="1" as="geometry">
                        <mxPoint y="-13" as="offset"/>
                    </mxGeometry>
                </mxCell>
                <mxCell id="18" value="" style="dashed=1;dashPattern=8 4;endArrow=blockThin;endFill=1;startArrow=oval;startFill=0;endSize=6;startSize=4;html=1;fontFamily=Times New Roman;" parent="1" edge="1">
                    <mxGeometry width="160" relative="1" as="geometry">
                        <mxPoint x="790" y="250" as="sourcePoint"/>
                        <mxPoint x="520" y="250" as="targetPoint"/>
                    </mxGeometry>
                </mxCell>
                <mxCell id="21" value="Valid&amp;nbsp;" style="edgeLabel;html=1;align=center;verticalAlign=middle;resizable=0;points=[];fontFamily=Times New Roman;fontSize=12;" parent="18" vertex="1" connectable="0">
                    <mxGeometry x="0.1742" y="1" relative="1" as="geometry">
                        <mxPoint y="9" as="offset"/>
                    </mxGeometry>
                </mxCell>
                <mxCell id="19" value="" style="dashed=1;dashPattern=8 4;endArrow=blockThin;endFill=1;startArrow=oval;startFill=0;endSize=6;startSize=4;html=1;fontFamily=Times New Roman;fontSize=12;" parent="1" edge="1">
                    <mxGeometry width="160" relative="1" as="geometry">
                        <mxPoint x="250" y="290" as="sourcePoint"/>
                        <mxPoint x="20" y="290" as="targetPoint"/>
                    </mxGeometry>
                </mxCell>
                <mxCell id="24" value="User Protected&amp;nbsp;&lt;br style=&quot;font-size: 12px;&quot;&gt;Resources&amp;nbsp;" style="edgeLabel;html=1;align=center;verticalAlign=middle;resizable=0;points=[];fontFamily=Times New Roman;fontSize=12;" parent="19" vertex="1" connectable="0">
                    <mxGeometry x="-0.1173" y="2" relative="1" as="geometry">
                        <mxPoint x="-8" y="-22" as="offset"/>
                    </mxGeometry>
                </mxCell>
                <mxCell id="20" value="Permission Granted" style="dashed=1;dashPattern=8 4;endArrow=blockThin;endFill=1;startArrow=oval;startFill=0;endSize=6;startSize=4;html=1;fontFamily=Times New Roman;fontSize=12;" parent="1" edge="1">
                    <mxGeometry x="0.037" y="-10" width="160" relative="1" as="geometry">
                        <mxPoint x="520" y="270" as="sourcePoint"/>
                        <mxPoint x="250" y="270" as="targetPoint"/>
                        <mxPoint as="offset"/>
                    </mxGeometry>
                </mxCell>
                <mxCell id="27" value="" style="endArrow=none;dashed=1;html=1;dashPattern=1 3;strokeWidth=2;startArrow=none;fontFamily=Times New Roman;fontSize=12;" parent="1" source="38" target="25" edge="1">
                    <mxGeometry width="50" height="50" relative="1" as="geometry">
                        <mxPoint x="249.5" y="660" as="sourcePoint"/>
                        <mxPoint x="249.5" y="140" as="targetPoint"/>
                    </mxGeometry>
                </mxCell>
                <mxCell id="30" value="" style="endArrow=none;dashed=1;html=1;dashPattern=1 3;strokeWidth=2;fontFamily=Times New Roman;startArrow=none;" parent="1" source="48" target="29" edge="1">
                    <mxGeometry width="50" height="50" relative="1" as="geometry">
                        <mxPoint x="519.5" y="650" as="sourcePoint"/>
                        <mxPoint x="519.5" y="130" as="targetPoint"/>
                    </mxGeometry>
                </mxCell>
                <mxCell id="29" value="" style="rounded=0;whiteSpace=wrap;html=1;fillColor=none;fontFamily=Times New Roman;fontSize=12;" parent="1" vertex="1">
                    <mxGeometry x="510" y="210" width="20" height="150" as="geometry"/>
                </mxCell>
                <mxCell id="34" value="" style="endArrow=none;dashed=1;html=1;dashPattern=1 3;strokeWidth=2;fontFamily=Times New Roman;startArrow=none;" parent="1" source="68" target="32" edge="1">
                    <mxGeometry width="50" height="50" relative="1" as="geometry">
                        <mxPoint x="789.5" y="650" as="sourcePoint"/>
                        <mxPoint x="789.5" y="130" as="targetPoint"/>
                    </mxGeometry>
                </mxCell>
                <mxCell id="32" value="" style="rounded=0;whiteSpace=wrap;html=1;fillColor=none;fontFamily=Times New Roman;" parent="1" vertex="1">
                    <mxGeometry x="780" y="230" width="20" height="110" as="geometry"/>
                </mxCell>
                <mxCell id="35" value="Set&lt;br style=&quot;font-size: 12px;&quot;&gt;Schedule" style="endArrow=classic;html=1;fontFamily=Times New Roman;fontSize=12;" parent="1" edge="1">
                    <mxGeometry x="0.0435" y="20" width="50" height="50" relative="1" as="geometry">
                        <mxPoint x="20" y="430" as="sourcePoint"/>
                        <mxPoint x="250" y="430" as="targetPoint"/>
                        <mxPoint as="offset"/>
                    </mxGeometry>
                </mxCell>
                <mxCell id="36" value="" style="dashed=1;dashPattern=8 4;endArrow=blockThin;endFill=1;startArrow=oval;startFill=0;endSize=6;startSize=4;html=1;fontFamily=Times New Roman;" parent="1" edge="1">
                    <mxGeometry width="160" relative="1" as="geometry">
                        <mxPoint x="250" y="460" as="sourcePoint"/>
                        <mxPoint x="20" y="460" as="targetPoint"/>
                    </mxGeometry>
                </mxCell>
                <mxCell id="37" value="Scheduled&amp;nbsp;&lt;br style=&quot;font-size: 12px;&quot;&gt;Reminders" style="edgeLabel;html=1;align=center;verticalAlign=middle;resizable=0;points=[];fontFamily=Times New Roman;fontSize=12;" parent="36" vertex="1" connectable="0">
                    <mxGeometry x="-0.1173" y="2" relative="1" as="geometry">
                        <mxPoint x="-8" y="18" as="offset"/>
                    </mxGeometry>
                </mxCell>
                <mxCell id="39" value="" style="endArrow=none;dashed=1;html=1;dashPattern=1 3;strokeWidth=2;fontFamily=Times New Roman;startArrow=none;" parent="1" source="25" target="38" edge="1">
                    <mxGeometry width="50" height="50" relative="1" as="geometry">
                        <mxPoint x="249.5" y="660" as="sourcePoint"/>
                        <mxPoint x="249.94047619047615" y="290" as="targetPoint"/>
                    </mxGeometry>
                </mxCell>
                <mxCell id="40" value="Provide Dog &lt;br&gt;Photo" style="endArrow=classic;html=1;fontFamily=Times New Roman;fontSize=12;" parent="1" edge="1">
                    <mxGeometry x="-0.0435" y="-20" width="50" height="50" relative="1" as="geometry">
                        <mxPoint x="20" y="520" as="sourcePoint"/>
                        <mxPoint x="250" y="520" as="targetPoint"/>
                        <mxPoint as="offset"/>
                    </mxGeometry>
                </mxCell>
                <mxCell id="41" value="Breed Detection" style="endArrow=classic;html=1;fontFamily=Times New Roman;fontSize=12;" parent="1" edge="1">
                    <mxGeometry x="-0.037" y="10" width="50" height="50" relative="1" as="geometry">
                        <mxPoint x="250" y="540" as="sourcePoint"/>
                        <mxPoint x="520" y="540" as="targetPoint"/>
                        <mxPoint as="offset"/>
                    </mxGeometry>
                </mxCell>
                <mxCell id="42" value="Generate&lt;br&gt;Breed Name" style="dashed=1;dashPattern=8 4;endArrow=blockThin;endFill=1;startArrow=oval;startFill=0;endSize=6;startSize=4;html=1;fontFamily=Times New Roman;fontSize=12;" parent="1" edge="1">
                    <mxGeometry x="0.037" y="20" width="160" relative="1" as="geometry">
                        <mxPoint x="520" y="570" as="sourcePoint"/>
                        <mxPoint x="250" y="570" as="targetPoint"/>
                        <mxPoint as="offset"/>
                    </mxGeometry>
                </mxCell>
                <mxCell id="43" value="" style="dashed=1;dashPattern=8 4;endArrow=blockThin;endFill=1;startArrow=oval;startFill=0;endSize=6;startSize=4;html=1;fontFamily=Times New Roman;fontSize=12;" parent="1" edge="1">
                    <mxGeometry width="160" relative="1" as="geometry">
                        <mxPoint x="250" y="590" as="sourcePoint"/>
                        <mxPoint x="20" y="590" as="targetPoint"/>
                    </mxGeometry>
                </mxCell>
                <mxCell id="44" value="Display Final&amp;nbsp;&lt;br&gt;Output" style="edgeLabel;html=1;align=center;verticalAlign=middle;resizable=0;points=[];fontFamily=Times New Roman;fontSize=12;" parent="43" vertex="1" connectable="0">
                    <mxGeometry x="-0.1173" y="2" relative="1" as="geometry">
                        <mxPoint x="-18" y="18" as="offset"/>
                    </mxGeometry>
                </mxCell>
                <mxCell id="45" value="" style="endArrow=none;dashed=1;html=1;dashPattern=1 3;strokeWidth=2;fontFamily=Times New Roman;startArrow=none;" parent="1" source="38" target="25" edge="1">
                    <mxGeometry width="50" height="50" relative="1" as="geometry">
                        <mxPoint x="250" y="710" as="sourcePoint"/>
                        <mxPoint x="249.95614035087715" y="400" as="targetPoint"/>
                    </mxGeometry>
                </mxCell>
                <mxCell id="49" value="" style="endArrow=none;dashed=1;html=1;dashPattern=1 3;strokeWidth=2;fontFamily=Times New Roman;startArrow=none;" parent="1" source="71" target="48" edge="1">
                    <mxGeometry width="50" height="50" relative="1" as="geometry">
                        <mxPoint x="520" y="770" as="sourcePoint"/>
                        <mxPoint x="519.9634146341464" y="340" as="targetPoint"/>
                    </mxGeometry>
                </mxCell>
                <mxCell id="48" value="" style="rounded=0;whiteSpace=wrap;html=1;fillColor=none;fontFamily=Times New Roman;" parent="1" vertex="1">
                    <mxGeometry x="510" y="540" width="20" height="30" as="geometry"/>
                </mxCell>
                <mxCell id="50" value="" style="endArrow=none;dashed=1;html=1;dashPattern=1 3;strokeWidth=2;startArrow=none;fontFamily=Times New Roman;" parent="1" source="25" target="38" edge="1">
                    <mxGeometry width="50" height="50" relative="1" as="geometry">
                        <mxPoint x="249.9411764705883" y="440" as="sourcePoint"/>
                        <mxPoint x="249.5" y="140" as="targetPoint"/>
                    </mxGeometry>
                </mxCell>
                <mxCell id="52" value="Request Community&lt;br&gt;Posts" style="endArrow=classic;html=1;fontFamily=Times New Roman;fontSize=12;" parent="1" edge="1">
                    <mxGeometry x="0.0435" y="-20" width="50" height="50" relative="1" as="geometry">
                        <mxPoint x="20" y="650" as="sourcePoint"/>
                        <mxPoint x="250" y="650" as="targetPoint"/>
                        <mxPoint as="offset"/>
                    </mxGeometry>
                </mxCell>
                <mxCell id="53" value="User Information&amp;nbsp;&lt;br&gt;and Request" style="endArrow=classic;html=1;fontFamily=Times New Roman;fontSize=12;" parent="1" edge="1">
                    <mxGeometry x="-0.037" y="20" width="50" height="50" relative="1" as="geometry">
                        <mxPoint x="250" y="660" as="sourcePoint"/>
                        <mxPoint x="520" y="660" as="targetPoint"/>
                        <mxPoint as="offset"/>
                    </mxGeometry>
                </mxCell>
                <mxCell id="55" value="&lt;font style=&quot;font-size: 12px;&quot;&gt;Colaborate Filtering&lt;/font&gt;" style="endArrow=classic;html=1;fontFamily=Times New Roman;" parent="1" edge="1">
                    <mxGeometry x="-0.037" y="20" width="50" height="50" relative="1" as="geometry">
                        <mxPoint x="520" y="680" as="sourcePoint"/>
                        <mxPoint x="790" y="680" as="targetPoint"/>
                        <mxPoint as="offset"/>
                    </mxGeometry>
                </mxCell>
                <mxCell id="57" value="&lt;font style=&quot;font-size: 12px;&quot;&gt;Post Information&lt;/font&gt;" style="dashed=1;dashPattern=8 4;endArrow=blockThin;endFill=1;startArrow=oval;startFill=0;endSize=6;startSize=4;html=1;fontFamily=Times New Roman;" parent="1" edge="1">
                    <mxGeometry x="0.037" y="10" width="160" relative="1" as="geometry">
                        <mxPoint x="790" y="710" as="sourcePoint"/>
                        <mxPoint x="520" y="710" as="targetPoint"/>
                        <mxPoint as="offset"/>
                    </mxGeometry>
                </mxCell>
                <mxCell id="59" value="Process Obtained&amp;nbsp;&lt;br&gt;Post information" style="dashed=1;dashPattern=8 4;endArrow=blockThin;endFill=1;startArrow=oval;startFill=0;endSize=6;startSize=4;html=1;fontFamily=Times New Roman;fontSize=12;" parent="1" edge="1">
                    <mxGeometry x="0.037" y="-20" width="160" relative="1" as="geometry">
                        <mxPoint x="520" y="740" as="sourcePoint"/>
                        <mxPoint x="250" y="740" as="targetPoint"/>
                        <mxPoint as="offset"/>
                    </mxGeometry>
                </mxCell>
                <mxCell id="61" value="" style="dashed=1;dashPattern=8 4;endArrow=blockThin;endFill=1;startArrow=oval;startFill=0;endSize=6;startSize=4;html=1;fontFamily=Times New Roman;fontSize=12;" parent="1" edge="1">
                    <mxGeometry width="160" relative="1" as="geometry">
                        <mxPoint x="250" y="760" as="sourcePoint"/>
                        <mxPoint x="20" y="760" as="targetPoint"/>
                    </mxGeometry>
                </mxCell>
                <mxCell id="62" value="Display&amp;nbsp; Posts" style="edgeLabel;html=1;align=center;verticalAlign=middle;resizable=0;points=[];fontFamily=Times New Roman;fontSize=12;" parent="61" vertex="1" connectable="0">
                    <mxGeometry x="-0.1173" y="2" relative="1" as="geometry">
                        <mxPoint x="-8" y="-12" as="offset"/>
                    </mxGeometry>
                </mxCell>
                <mxCell id="63" value="" style="endArrow=none;dashed=1;html=1;dashPattern=1 3;strokeWidth=2;startArrow=none;fontFamily=Times New Roman;" parent="1" source="38" target="25" edge="1">
                    <mxGeometry width="50" height="50" relative="1" as="geometry">
                        <mxPoint x="249.94680851063822" y="350" as="sourcePoint"/>
                        <mxPoint x="249.5" y="140" as="targetPoint"/>
                    </mxGeometry>
                </mxCell>
                <mxCell id="25" value="" style="rounded=0;whiteSpace=wrap;html=1;fillColor=none;fontFamily=Times New Roman;fontSize=12;" parent="1" vertex="1">
                    <mxGeometry x="240" y="190" width="20" height="190" as="geometry"/>
                </mxCell>
                <mxCell id="65" value="" style="endArrow=none;dashed=1;html=1;dashPattern=1 3;strokeWidth=2;fontFamily=Times New Roman;" parent="1" target="64" edge="1">
                    <mxGeometry width="50" height="50" relative="1" as="geometry">
                        <mxPoint x="250" y="780" as="sourcePoint"/>
                        <mxPoint x="250" y="360" as="targetPoint"/>
                    </mxGeometry>
                </mxCell>
                <mxCell id="64" value="" style="rounded=0;whiteSpace=wrap;html=1;fillColor=none;fontFamily=Times New Roman;fontSize=12;" parent="1" vertex="1">
                    <mxGeometry x="240" y="650" width="20" height="110" as="geometry"/>
                </mxCell>
                <mxCell id="69" value="" style="endArrow=none;dashed=1;html=1;dashPattern=1 3;strokeWidth=2;fontFamily=Times New Roman;" parent="1" target="68" edge="1">
                    <mxGeometry width="50" height="50" relative="1" as="geometry">
                        <mxPoint x="789.5" y="720" as="sourcePoint"/>
                        <mxPoint x="789.9878048780488" y="320" as="targetPoint"/>
                    </mxGeometry>
                </mxCell>
                <mxCell id="68" value="" style="rounded=0;whiteSpace=wrap;html=1;fillColor=none;fontFamily=Times New Roman;fontSize=12;" parent="1" vertex="1">
                    <mxGeometry x="780" y="660" width="20" height="60" as="geometry"/>
                </mxCell>
                <mxCell id="72" value="" style="endArrow=none;dashed=1;html=1;dashPattern=1 3;strokeWidth=2;fontFamily=Times New Roman;" parent="1" target="71" edge="1">
                    <mxGeometry width="50" height="50" relative="1" as="geometry">
                        <mxPoint x="520" y="770" as="sourcePoint"/>
                        <mxPoint x="520" y="570" as="targetPoint"/>
                    </mxGeometry>
                </mxCell>
                <mxCell id="71" value="" style="rounded=0;whiteSpace=wrap;html=1;fillColor=none;fontFamily=Times New Roman;fontSize=12;" parent="1" vertex="1">
                    <mxGeometry x="510" y="650" width="20" height="100" as="geometry"/>
                </mxCell>
                <mxCell id="74" value="" style="endArrow=none;dashed=1;html=1;dashPattern=1 3;strokeWidth=2;fontFamily=Times New Roman;startArrow=none;" parent="1" source="64" target="73" edge="1">
                    <mxGeometry width="50" height="50" relative="1" as="geometry">
                        <mxPoint x="250" y="650" as="sourcePoint"/>
                        <mxPoint x="250" y="360" as="targetPoint"/>
                    </mxGeometry>
                </mxCell>
                <mxCell id="73" value="" style="rounded=0;whiteSpace=wrap;html=1;fillColor=none;fontFamily=Times New Roman;fontSize=12;" parent="1" vertex="1">
                    <mxGeometry x="240" y="505" width="20" height="100" as="geometry"/>
                </mxCell>
                <mxCell id="91" value="" style="endArrow=none;html=1;fontFamily=Times New Roman;fontSize=12;exitX=0;exitY=0.5;exitDx=0;exitDy=0;exitPerimeter=0;entryX=1;entryY=0.5;entryDx=0;entryDy=0;entryPerimeter=0;opacity=40;" parent="1" source="79" target="79" edge="1">
                    <mxGeometry width="50" height="50" relative="1" as="geometry">
                        <mxPoint x="470" y="470" as="sourcePoint"/>
                        <mxPoint x="520" y="420" as="targetPoint"/>
                    </mxGeometry>
                </mxCell>
                <mxCell id="92" value="" style="dashed=1;dashPattern=8 4;endArrow=blockThin;endFill=1;startArrow=oval;startFill=0;endSize=6;startSize=4;html=1;fontFamily=Times New Roman;" parent="1" edge="1">
                    <mxGeometry width="160" relative="1" as="geometry">
                        <mxPoint x="790" y="340" as="sourcePoint"/>
                        <mxPoint x="520" y="340" as="targetPoint"/>
                    </mxGeometry>
                </mxCell>
                <mxCell id="93" value="Invalid" style="edgeLabel;html=1;align=center;verticalAlign=middle;resizable=0;points=[];fontFamily=Times New Roman;fontSize=12;" parent="92" vertex="1" connectable="0">
                    <mxGeometry x="0.1742" y="1" relative="1" as="geometry">
                        <mxPoint y="9" as="offset"/>
                    </mxGeometry>
                </mxCell>
                <mxCell id="94" value="Permission Rejected" style="dashed=1;dashPattern=8 4;endArrow=blockThin;endFill=1;startArrow=oval;startFill=0;endSize=6;startSize=4;html=1;fontFamily=Times New Roman;fontSize=12;" parent="1" edge="1">
                    <mxGeometry x="0.037" y="-10" width="160" relative="1" as="geometry">
                        <mxPoint x="520" y="360" as="sourcePoint"/>
                        <mxPoint x="250" y="360" as="targetPoint"/>
                        <mxPoint as="offset"/>
                    </mxGeometry>
                </mxCell>
                <mxCell id="95" value="Request Information again" style="dashed=1;dashPattern=8 4;endArrow=blockThin;endFill=1;startArrow=oval;startFill=0;endSize=6;startSize=4;html=1;fontFamily=Times New Roman;fontSize=12;" parent="1" edge="1">
                    <mxGeometry width="160" relative="1" as="geometry">
                        <mxPoint x="250" y="380" as="sourcePoint"/>
                        <mxPoint x="20" y="380" as="targetPoint"/>
                    </mxGeometry>
                </mxCell>
                <mxCell id="96" value="" style="endArrow=none;dashed=1;html=1;dashPattern=1 3;strokeWidth=2;fontFamily=Times New Roman;startArrow=none;" parent="1" source="73" target="38" edge="1">
                    <mxGeometry width="50" height="50" relative="1" as="geometry">
                        <mxPoint x="250" y="505" as="sourcePoint"/>
                        <mxPoint x="250" y="380" as="targetPoint"/>
                    </mxGeometry>
                </mxCell>
                <mxCell id="38" value="" style="rounded=0;whiteSpace=wrap;html=1;fillColor=none;fontFamily=Times New Roman;" parent="1" vertex="1">
                    <mxGeometry x="240" y="420" width="20" height="50" as="geometry"/>
                </mxCell>
            </root>
        </mxGraphModel>
    </diagram>
</mxfile>